<mxfile host="app.diagrams.net" modified="2021-01-09T14:45:54.739Z" agent="5.0 (Windows NT 10.0; Win64; x64) AppleWebKit/537.36 (KHTML, like Gecko) Chrome/87.0.4280.88 Safari/537.36" etag="5qmiW4I9X7Qqh8ceOLlj" version="14.1.9" type="github">
  <diagram id="R0eKD6uKEBfeONIN6vYT" name="Page-1">
    <mxGraphModel dx="1483" dy="701" grid="1" gridSize="10" guides="1" tooltips="1" connect="1" arrows="1" fold="1" page="1" pageScale="1" pageWidth="827" pageHeight="1169" math="0" shadow="0">
      <root>
        <mxCell id="0" />
        <mxCell id="1" parent="0" />
        <mxCell id="nbNFHDUKluIm0Wr619E0-1" value="社团管理系统" style="rounded=0;whiteSpace=wrap;html=1;" parent="1" vertex="1">
          <mxGeometry x="330" y="50" width="170" height="60" as="geometry" />
        </mxCell>
        <mxCell id="nbNFHDUKluIm0Wr619E0-2" value="处理用户管理" style="rounded=0;whiteSpace=wrap;html=1;" parent="1" vertex="1">
          <mxGeometry x="180" y="190" width="170" height="60" as="geometry" />
        </mxCell>
        <mxCell id="nbNFHDUKluIm0Wr619E0-3" value="处理社团相关" style="rounded=0;whiteSpace=wrap;html=1;" parent="1" vertex="1">
          <mxGeometry x="638" y="190" width="170" height="60" as="geometry" />
        </mxCell>
        <mxCell id="nbNFHDUKluIm0Wr619E0-9" value="&lt;font style=&quot;font-size: 14px&quot;&gt;用户管理请求&lt;br&gt;系统通知&lt;/font&gt;" style="text;html=1;align=center;verticalAlign=middle;resizable=0;points=[];autosize=1;" parent="1" vertex="1">
          <mxGeometry x="330" y="150" width="100" height="30" as="geometry" />
        </mxCell>
        <mxCell id="nbNFHDUKluIm0Wr619E0-10" value="" style="endArrow=none;html=1;exitX=0.5;exitY=0;exitDx=0;exitDy=0;entryX=0.25;entryY=1;entryDx=0;entryDy=0;" parent="1" source="nbNFHDUKluIm0Wr619E0-2" target="nbNFHDUKluIm0Wr619E0-1" edge="1">
          <mxGeometry width="50" height="50" relative="1" as="geometry">
            <mxPoint x="370" y="190" as="sourcePoint" />
            <mxPoint x="420" y="140" as="targetPoint" />
          </mxGeometry>
        </mxCell>
        <mxCell id="nbNFHDUKluIm0Wr619E0-11" value="" style="endArrow=classic;html=1;" parent="1" edge="1">
          <mxGeometry width="50" height="50" relative="1" as="geometry">
            <mxPoint x="300" y="180" as="sourcePoint" />
            <mxPoint x="370" y="130" as="targetPoint" />
          </mxGeometry>
        </mxCell>
        <mxCell id="nbNFHDUKluIm0Wr619E0-12" value="" style="endArrow=classic;html=1;" parent="1" edge="1">
          <mxGeometry width="50" height="50" relative="1" as="geometry">
            <mxPoint x="340" y="120" as="sourcePoint" />
            <mxPoint x="270" y="170" as="targetPoint" />
          </mxGeometry>
        </mxCell>
        <mxCell id="nbNFHDUKluIm0Wr619E0-13" value="&lt;font style=&quot;font-size: 14px&quot;&gt;用户管理结果&lt;/font&gt;" style="text;html=1;align=center;verticalAlign=middle;resizable=0;points=[];autosize=1;" parent="1" vertex="1">
          <mxGeometry x="215" y="130" width="100" height="20" as="geometry" />
        </mxCell>
        <mxCell id="nbNFHDUKluIm0Wr619E0-14" value="" style="endArrow=none;html=1;entryX=0.75;entryY=1;entryDx=0;entryDy=0;exitX=0.5;exitY=0;exitDx=0;exitDy=0;" parent="1" source="nbNFHDUKluIm0Wr619E0-3" target="nbNFHDUKluIm0Wr619E0-1" edge="1">
          <mxGeometry width="50" height="50" relative="1" as="geometry">
            <mxPoint x="370" y="180" as="sourcePoint" />
            <mxPoint x="420" y="130" as="targetPoint" />
          </mxGeometry>
        </mxCell>
        <mxCell id="nbNFHDUKluIm0Wr619E0-15" value="" style="endArrow=classic;html=1;" parent="1" edge="1">
          <mxGeometry width="50" height="50" relative="1" as="geometry">
            <mxPoint x="718" y="172" as="sourcePoint" />
            <mxPoint x="540" y="120" as="targetPoint" />
          </mxGeometry>
        </mxCell>
        <mxCell id="nbNFHDUKluIm0Wr619E0-16" value="" style="endArrow=classic;html=1;" parent="1" edge="1">
          <mxGeometry width="50" height="50" relative="1" as="geometry">
            <mxPoint x="480" y="130" as="sourcePoint" />
            <mxPoint x="630" y="180" as="targetPoint" />
          </mxGeometry>
        </mxCell>
        <mxCell id="nbNFHDUKluIm0Wr619E0-17" value="&lt;span style=&quot;font-size: 14px&quot;&gt;社团相关请求&lt;br&gt;社团管理请求&lt;/span&gt;" style="text;html=1;align=center;verticalAlign=middle;resizable=0;points=[];autosize=1;" parent="1" vertex="1">
          <mxGeometry x="470" y="170" width="100" height="30" as="geometry" />
        </mxCell>
        <mxCell id="nbNFHDUKluIm0Wr619E0-18" value="&lt;span style=&quot;font-size: 14px&quot;&gt;请求结果&lt;/span&gt;" style="text;html=1;align=center;verticalAlign=middle;resizable=0;points=[];autosize=1;" parent="1" vertex="1">
          <mxGeometry x="610" y="120" width="70" height="20" as="geometry" />
        </mxCell>
        <mxCell id="nbNFHDUKluIm0Wr619E0-19" value="处理社团信息查询" style="rounded=0;whiteSpace=wrap;html=1;" parent="1" vertex="1">
          <mxGeometry x="520" y="340" width="120" height="60" as="geometry" />
        </mxCell>
        <mxCell id="nbNFHDUKluIm0Wr619E0-21" value="处理社团活动" style="rounded=0;whiteSpace=wrap;html=1;" parent="1" vertex="1">
          <mxGeometry x="665" y="340" width="120" height="60" as="geometry" />
        </mxCell>
        <mxCell id="nbNFHDUKluIm0Wr619E0-22" value="处理社团成员" style="rounded=0;whiteSpace=wrap;html=1;" parent="1" vertex="1">
          <mxGeometry x="817" y="339" width="120" height="60" as="geometry" />
        </mxCell>
        <mxCell id="nbNFHDUKluIm0Wr619E0-24" value="" style="endArrow=none;html=1;entryX=0.25;entryY=1;entryDx=0;entryDy=0;exitX=0.5;exitY=0;exitDx=0;exitDy=0;" parent="1" source="nbNFHDUKluIm0Wr619E0-19" target="nbNFHDUKluIm0Wr619E0-3" edge="1">
          <mxGeometry width="50" height="50" relative="1" as="geometry">
            <mxPoint x="568" y="260" as="sourcePoint" />
            <mxPoint x="618" y="210" as="targetPoint" />
          </mxGeometry>
        </mxCell>
        <mxCell id="nbNFHDUKluIm0Wr619E0-25" value="" style="endArrow=none;html=1;entryX=0.5;entryY=1;entryDx=0;entryDy=0;exitX=0.5;exitY=0;exitDx=0;exitDy=0;" parent="1" source="nbNFHDUKluIm0Wr619E0-21" target="nbNFHDUKluIm0Wr619E0-3" edge="1">
          <mxGeometry width="50" height="50" relative="1" as="geometry">
            <mxPoint x="608" y="350" as="sourcePoint" />
            <mxPoint x="690.5" y="260" as="targetPoint" />
          </mxGeometry>
        </mxCell>
        <mxCell id="nbNFHDUKluIm0Wr619E0-26" value="" style="endArrow=none;html=1;entryX=0.75;entryY=1;entryDx=0;entryDy=0;exitX=0.5;exitY=0;exitDx=0;exitDy=0;" parent="1" source="nbNFHDUKluIm0Wr619E0-22" target="nbNFHDUKluIm0Wr619E0-3" edge="1">
          <mxGeometry width="50" height="50" relative="1" as="geometry">
            <mxPoint x="750" y="350" as="sourcePoint" />
            <mxPoint x="733" y="260" as="targetPoint" />
          </mxGeometry>
        </mxCell>
        <mxCell id="nbNFHDUKluIm0Wr619E0-27" value="返回处理结果" style="rounded=0;whiteSpace=wrap;html=1;" parent="1" vertex="1">
          <mxGeometry x="937" y="480" width="120" height="60" as="geometry" />
        </mxCell>
        <mxCell id="nbNFHDUKluIm0Wr619E0-29" value="" style="endArrow=none;html=1;entryX=0.5;entryY=1;entryDx=0;entryDy=0;exitX=0.5;exitY=0;exitDx=0;exitDy=0;" parent="1" source="nbNFHDUKluIm0Wr619E0-27" target="nbNFHDUKluIm0Wr619E0-21" edge="1">
          <mxGeometry width="50" height="50" relative="1" as="geometry">
            <mxPoint x="568" y="490" as="sourcePoint" />
            <mxPoint x="618" y="440" as="targetPoint" />
          </mxGeometry>
        </mxCell>
        <mxCell id="nbNFHDUKluIm0Wr619E0-30" value="" style="endArrow=none;html=1;entryX=0.5;entryY=1;entryDx=0;entryDy=0;exitX=0.75;exitY=0;exitDx=0;exitDy=0;" parent="1" source="nbNFHDUKluIm0Wr619E0-27" target="nbNFHDUKluIm0Wr619E0-22" edge="1">
          <mxGeometry width="50" height="50" relative="1" as="geometry">
            <mxPoint x="568" y="490" as="sourcePoint" />
            <mxPoint x="618" y="440" as="targetPoint" />
          </mxGeometry>
        </mxCell>
        <mxCell id="nbNFHDUKluIm0Wr619E0-31" value="" style="endArrow=none;html=1;entryX=0.5;entryY=1;entryDx=0;entryDy=0;exitX=0.25;exitY=0;exitDx=0;exitDy=0;" parent="1" source="nbNFHDUKluIm0Wr619E0-27" target="nbNFHDUKluIm0Wr619E0-19" edge="1">
          <mxGeometry width="50" height="50" relative="1" as="geometry">
            <mxPoint x="766" y="470" as="sourcePoint" />
            <mxPoint x="887" y="409" as="targetPoint" />
          </mxGeometry>
        </mxCell>
        <mxCell id="nbNFHDUKluIm0Wr619E0-32" value="用户查询" style="rounded=0;whiteSpace=wrap;html=1;" parent="1" vertex="1">
          <mxGeometry x="180" y="480" width="170" height="60" as="geometry" />
        </mxCell>
        <mxCell id="nbNFHDUKluIm0Wr619E0-33" value="用户注册" style="rounded=0;whiteSpace=wrap;html=1;" parent="1" vertex="1">
          <mxGeometry x="50" y="340" width="125" height="60" as="geometry" />
        </mxCell>
        <mxCell id="nbNFHDUKluIm0Wr619E0-34" value="用户登录" style="rounded=0;whiteSpace=wrap;html=1;" parent="1" vertex="1">
          <mxGeometry x="350" y="339" width="127" height="60" as="geometry" />
        </mxCell>
        <mxCell id="nbNFHDUKluIm0Wr619E0-36" value="" style="endArrow=none;html=1;entryX=0.25;entryY=1;entryDx=0;entryDy=0;exitX=0.5;exitY=0;exitDx=0;exitDy=0;" parent="1" source="nbNFHDUKluIm0Wr619E0-33" target="nbNFHDUKluIm0Wr619E0-2" edge="1">
          <mxGeometry width="50" height="50" relative="1" as="geometry">
            <mxPoint x="470" y="370" as="sourcePoint" />
            <mxPoint x="520" y="320" as="targetPoint" />
          </mxGeometry>
        </mxCell>
        <mxCell id="nbNFHDUKluIm0Wr619E0-37" value="" style="endArrow=none;html=1;entryX=0.75;entryY=1;entryDx=0;entryDy=0;exitX=0.5;exitY=0;exitDx=0;exitDy=0;" parent="1" source="nbNFHDUKluIm0Wr619E0-34" target="nbNFHDUKluIm0Wr619E0-2" edge="1">
          <mxGeometry width="50" height="50" relative="1" as="geometry">
            <mxPoint x="162.5" y="350" as="sourcePoint" />
            <mxPoint x="232.5" y="260" as="targetPoint" />
          </mxGeometry>
        </mxCell>
        <mxCell id="nbNFHDUKluIm0Wr619E0-38" value="修改用户信息" style="rounded=0;whiteSpace=wrap;html=1;" parent="1" vertex="1">
          <mxGeometry x="202.5" y="339" width="125" height="60" as="geometry" />
        </mxCell>
        <mxCell id="nbNFHDUKluIm0Wr619E0-39" value="" style="endArrow=none;html=1;entryX=0.5;entryY=1;entryDx=0;entryDy=0;exitX=0.5;exitY=0;exitDx=0;exitDy=0;" parent="1" source="nbNFHDUKluIm0Wr619E0-38" target="nbNFHDUKluIm0Wr619E0-2" edge="1">
          <mxGeometry width="50" height="50" relative="1" as="geometry">
            <mxPoint x="470" y="370" as="sourcePoint" />
            <mxPoint x="520" y="320" as="targetPoint" />
          </mxGeometry>
        </mxCell>
        <mxCell id="nbNFHDUKluIm0Wr619E0-40" value="" style="endArrow=none;html=1;entryX=0.5;entryY=1;entryDx=0;entryDy=0;exitX=0.5;exitY=0;exitDx=0;exitDy=0;" parent="1" source="nbNFHDUKluIm0Wr619E0-32" target="nbNFHDUKluIm0Wr619E0-38" edge="1">
          <mxGeometry width="50" height="50" relative="1" as="geometry">
            <mxPoint x="470" y="370" as="sourcePoint" />
            <mxPoint x="520" y="320" as="targetPoint" />
          </mxGeometry>
        </mxCell>
        <mxCell id="nbNFHDUKluIm0Wr619E0-41" value="" style="endArrow=none;html=1;entryX=0.5;entryY=1;entryDx=0;entryDy=0;exitX=0.75;exitY=0;exitDx=0;exitDy=0;" parent="1" source="nbNFHDUKluIm0Wr619E0-32" target="nbNFHDUKluIm0Wr619E0-34" edge="1">
          <mxGeometry width="50" height="50" relative="1" as="geometry">
            <mxPoint x="275" y="480" as="sourcePoint" />
            <mxPoint x="275" y="409" as="targetPoint" />
          </mxGeometry>
        </mxCell>
        <mxCell id="nbNFHDUKluIm0Wr619E0-42" value="" style="endArrow=none;html=1;entryX=0.5;entryY=1;entryDx=0;entryDy=0;exitX=0.25;exitY=0;exitDx=0;exitDy=0;" parent="1" source="nbNFHDUKluIm0Wr619E0-32" target="nbNFHDUKluIm0Wr619E0-33" edge="1">
          <mxGeometry width="50" height="50" relative="1" as="geometry">
            <mxPoint x="317.5" y="480" as="sourcePoint" />
            <mxPoint x="423.4999999999998" y="409" as="targetPoint" />
          </mxGeometry>
        </mxCell>
        <mxCell id="nbNFHDUKluIm0Wr619E0-43" value="社团权限查询" style="rounded=0;whiteSpace=wrap;html=1;" parent="1" vertex="1">
          <mxGeometry x="665" y="480" width="120" height="60" as="geometry" />
        </mxCell>
        <mxCell id="nbNFHDUKluIm0Wr619E0-44" value="社团存在查询" style="rounded=0;whiteSpace=wrap;html=1;" parent="1" vertex="1">
          <mxGeometry x="460" y="480" width="120" height="60" as="geometry" />
        </mxCell>
        <mxCell id="nbNFHDUKluIm0Wr619E0-45" value="" style="endArrow=none;html=1;exitX=0.5;exitY=0;exitDx=0;exitDy=0;entryX=0.5;entryY=1;entryDx=0;entryDy=0;" parent="1" source="nbNFHDUKluIm0Wr619E0-44" target="nbNFHDUKluIm0Wr619E0-19" edge="1">
          <mxGeometry width="50" height="50" relative="1" as="geometry">
            <mxPoint x="470" y="370" as="sourcePoint" />
            <mxPoint x="520" y="320" as="targetPoint" />
          </mxGeometry>
        </mxCell>
        <mxCell id="nbNFHDUKluIm0Wr619E0-46" value="" style="endArrow=none;html=1;entryX=0.5;entryY=1;entryDx=0;entryDy=0;exitX=0.75;exitY=0;exitDx=0;exitDy=0;" parent="1" source="nbNFHDUKluIm0Wr619E0-44" target="nbNFHDUKluIm0Wr619E0-21" edge="1">
          <mxGeometry width="50" height="50" relative="1" as="geometry">
            <mxPoint x="520" y="480" as="sourcePoint" />
            <mxPoint x="590" y="410" as="targetPoint" />
          </mxGeometry>
        </mxCell>
        <mxCell id="nbNFHDUKluIm0Wr619E0-47" value="" style="endArrow=none;html=1;exitX=1;exitY=0;exitDx=0;exitDy=0;" parent="1" source="nbNFHDUKluIm0Wr619E0-44" edge="1">
          <mxGeometry width="50" height="50" relative="1" as="geometry">
            <mxPoint x="590" y="470" as="sourcePoint" />
            <mxPoint x="870" y="400" as="targetPoint" />
          </mxGeometry>
        </mxCell>
        <mxCell id="nbNFHDUKluIm0Wr619E0-49" value="" style="endArrow=none;html=1;exitX=0.5;exitY=0;exitDx=0;exitDy=0;" parent="1" source="nbNFHDUKluIm0Wr619E0-43" edge="1">
          <mxGeometry width="50" height="50" relative="1" as="geometry">
            <mxPoint x="470" y="370" as="sourcePoint" />
            <mxPoint x="725" y="400" as="targetPoint" />
          </mxGeometry>
        </mxCell>
        <mxCell id="nbNFHDUKluIm0Wr619E0-50" value="" style="endArrow=none;html=1;exitX=0.5;exitY=0;exitDx=0;exitDy=0;" parent="1" source="nbNFHDUKluIm0Wr619E0-43" edge="1">
          <mxGeometry width="50" height="50" relative="1" as="geometry">
            <mxPoint x="470" y="370" as="sourcePoint" />
            <mxPoint x="580" y="400" as="targetPoint" />
          </mxGeometry>
        </mxCell>
        <mxCell id="nbNFHDUKluIm0Wr619E0-51" value="" style="endArrow=none;html=1;exitX=0.5;exitY=0;exitDx=0;exitDy=0;" parent="1" source="nbNFHDUKluIm0Wr619E0-43" edge="1">
          <mxGeometry width="50" height="50" relative="1" as="geometry">
            <mxPoint x="590" y="490" as="sourcePoint" />
            <mxPoint x="880" y="400" as="targetPoint" />
          </mxGeometry>
        </mxCell>
      </root>
    </mxGraphModel>
  </diagram>
</mxfile>
